<mxfile host="app.diagrams.net" agent="Mozilla/5.0 (Windows NT 10.0; Win64; x64) AppleWebKit/537.36 (KHTML, like Gecko) Chrome/128.0.0.0 Safari/537.36" version="24.7.12">
  <diagram name="Page-1" id="ZY_OrxF2BbMYkRoszCv8">
    <mxGraphModel dx="1235" dy="727" grid="0" gridSize="10" guides="1" tooltips="1" connect="1" arrows="1" fold="1" page="0" pageScale="1" pageWidth="850" pageHeight="1100" math="0" shadow="0">
      <root>
        <mxCell id="0" />
        <mxCell id="1" parent="0" />
        <mxCell id="OP_WZOEwzZ8E04Q1PPD2-39" style="edgeStyle=orthogonalEdgeStyle;rounded=0;orthogonalLoop=1;jettySize=auto;html=1;entryX=0.994;entryY=0.648;entryDx=0;entryDy=0;fillColor=#fff2cc;strokeColor=#d6b656;shape=flexArrow;exitX=0.462;exitY=1.015;exitDx=0;exitDy=0;exitPerimeter=0;endArrow=none;endFill=0;entryPerimeter=0;" edge="1" parent="1" source="OP_WZOEwzZ8E04Q1PPD2-38" target="OP_WZOEwzZ8E04Q1PPD2-15">
          <mxGeometry relative="1" as="geometry">
            <Array as="points">
              <mxPoint x="560" y="310" />
              <mxPoint x="319" y="310" />
            </Array>
          </mxGeometry>
        </mxCell>
        <mxCell id="OP_WZOEwzZ8E04Q1PPD2-1" value="Instruction Pointer (IP)" style="rounded=0;whiteSpace=wrap;html=1;" vertex="1" parent="1">
          <mxGeometry x="129" y="140" width="190" height="60" as="geometry" />
        </mxCell>
        <mxCell id="OP_WZOEwzZ8E04Q1PPD2-3" value="" style="edgeStyle=orthogonalEdgeStyle;rounded=0;orthogonalLoop=1;jettySize=auto;html=1;entryX=0.076;entryY=-0.027;entryDx=0;entryDy=0;entryPerimeter=0;" edge="1" parent="1" source="OP_WZOEwzZ8E04Q1PPD2-2" target="OP_WZOEwzZ8E04Q1PPD2-1">
          <mxGeometry relative="1" as="geometry">
            <Array as="points">
              <mxPoint x="143" y="125" />
            </Array>
          </mxGeometry>
        </mxCell>
        <mxCell id="OP_WZOEwzZ8E04Q1PPD2-2" value="COUNT" style="text;html=1;align=center;verticalAlign=middle;resizable=0;points=[];autosize=1;strokeColor=none;fillColor=none;" vertex="1" parent="1">
          <mxGeometry x="34" y="110" width="70" height="30" as="geometry" />
        </mxCell>
        <mxCell id="OP_WZOEwzZ8E04Q1PPD2-7" style="edgeStyle=orthogonalEdgeStyle;rounded=0;orthogonalLoop=1;jettySize=auto;html=1;entryX=0;entryY=0.25;entryDx=0;entryDy=0;" edge="1" parent="1" source="OP_WZOEwzZ8E04Q1PPD2-5">
          <mxGeometry relative="1" as="geometry">
            <mxPoint x="129" y="147" as="targetPoint" />
          </mxGeometry>
        </mxCell>
        <mxCell id="OP_WZOEwzZ8E04Q1PPD2-5" value="LIP" style="text;html=1;align=center;verticalAlign=middle;resizable=0;points=[];autosize=1;strokeColor=none;fillColor=none;" vertex="1" parent="1">
          <mxGeometry x="49" y="132" width="40" height="30" as="geometry" />
        </mxCell>
        <mxCell id="OP_WZOEwzZ8E04Q1PPD2-9" style="edgeStyle=orthogonalEdgeStyle;rounded=0;orthogonalLoop=1;jettySize=auto;html=1;" edge="1" parent="1" source="OP_WZOEwzZ8E04Q1PPD2-8">
          <mxGeometry relative="1" as="geometry">
            <mxPoint x="129" y="162" as="targetPoint" />
          </mxGeometry>
        </mxCell>
        <mxCell id="OP_WZOEwzZ8E04Q1PPD2-8" value="CLK" style="text;html=1;align=center;verticalAlign=middle;resizable=0;points=[];autosize=1;strokeColor=none;fillColor=none;" vertex="1" parent="1">
          <mxGeometry x="44" y="147" width="50" height="30" as="geometry" />
        </mxCell>
        <mxCell id="OP_WZOEwzZ8E04Q1PPD2-11" style="edgeStyle=orthogonalEdgeStyle;rounded=0;orthogonalLoop=1;jettySize=auto;html=1;entryX=0;entryY=0.75;entryDx=0;entryDy=0;" edge="1" parent="1" source="OP_WZOEwzZ8E04Q1PPD2-10">
          <mxGeometry relative="1" as="geometry">
            <mxPoint x="129" y="177" as="targetPoint" />
          </mxGeometry>
        </mxCell>
        <mxCell id="OP_WZOEwzZ8E04Q1PPD2-10" value="EIP" style="text;html=1;align=center;verticalAlign=middle;resizable=0;points=[];autosize=1;strokeColor=none;fillColor=none;" vertex="1" parent="1">
          <mxGeometry x="49" y="162" width="40" height="30" as="geometry" />
        </mxCell>
        <mxCell id="OP_WZOEwzZ8E04Q1PPD2-12" value="RESET" style="text;html=1;align=center;verticalAlign=middle;resizable=0;points=[];autosize=1;strokeColor=none;fillColor=none;" vertex="1" parent="1">
          <mxGeometry x="39" y="177" width="60" height="30" as="geometry" />
        </mxCell>
        <mxCell id="OP_WZOEwzZ8E04Q1PPD2-14" style="edgeStyle=orthogonalEdgeStyle;rounded=0;orthogonalLoop=1;jettySize=auto;html=1;entryX=0;entryY=0.88;entryDx=0;entryDy=0;entryPerimeter=0;" edge="1" parent="1" source="OP_WZOEwzZ8E04Q1PPD2-12" target="OP_WZOEwzZ8E04Q1PPD2-1">
          <mxGeometry relative="1" as="geometry" />
        </mxCell>
        <mxCell id="OP_WZOEwzZ8E04Q1PPD2-104" style="edgeStyle=orthogonalEdgeStyle;rounded=0;orthogonalLoop=1;jettySize=auto;html=1;entryX=1;entryY=0.5;entryDx=0;entryDy=0;fillColor=#d5e8d4;strokeColor=#82b366;shape=flexArrow;endArrow=none;endFill=0;" edge="1" parent="1" source="OP_WZOEwzZ8E04Q1PPD2-15" target="OP_WZOEwzZ8E04Q1PPD2-40">
          <mxGeometry relative="1" as="geometry">
            <Array as="points">
              <mxPoint x="390" y="322" />
              <mxPoint x="390" y="389" />
            </Array>
          </mxGeometry>
        </mxCell>
        <mxCell id="OP_WZOEwzZ8E04Q1PPD2-15" value="&lt;div&gt;&lt;span style=&quot;background-color: initial;&quot;&gt;&lt;br&gt;&lt;/span&gt;&lt;/div&gt;&lt;div&gt;&lt;span style=&quot;background-color: initial;&quot;&gt;Temporary Register&lt;/span&gt;&lt;br&gt;&lt;/div&gt;&lt;div&gt;&lt;span style=&quot;background-color: initial;&quot;&gt;&lt;br&gt;&lt;/span&gt;&lt;/div&gt;&lt;div style=&quot;padding: 0px; margin-top: 0px; margin-right: 0px;&quot;&gt;&lt;table align=&quot;center&quot; cellpadding=&quot;0&quot; style=&quot;border: 1px solid rgb(0, 0, 0); border-collapse: collapse;&quot; border=&quot;1&quot;&gt;&lt;tbody&gt;&lt;tr&gt;&lt;td&gt;T2 (ET_B)&lt;br&gt;&amp;nbsp; &amp;nbsp; &amp;nbsp;[15:8]&amp;nbsp; &amp;nbsp; &amp;nbsp;&amp;nbsp;&lt;/td&gt;&lt;td&gt;T1 (ET)&lt;br&gt;&amp;nbsp; &amp;nbsp; &amp;nbsp; &amp;nbsp;[7:0]&amp;nbsp; &amp;nbsp; &amp;nbsp; &amp;nbsp;&lt;/td&gt;&lt;/tr&gt;&lt;/tbody&gt;&lt;/table&gt;&lt;br&gt;&lt;/div&gt;" style="rounded=0;whiteSpace=wrap;html=1;" vertex="1" parent="1">
          <mxGeometry x="129" y="260" width="190" height="76" as="geometry" />
        </mxCell>
        <mxCell id="OP_WZOEwzZ8E04Q1PPD2-19" value="LT1" style="text;html=1;align=center;verticalAlign=middle;resizable=0;points=[];autosize=1;strokeColor=none;fillColor=none;" vertex="1" parent="1">
          <mxGeometry x="49" y="253" width="40" height="30" as="geometry" />
        </mxCell>
        <mxCell id="OP_WZOEwzZ8E04Q1PPD2-20" style="edgeStyle=orthogonalEdgeStyle;rounded=0;orthogonalLoop=1;jettySize=auto;html=1;" edge="1" parent="1" source="OP_WZOEwzZ8E04Q1PPD2-21">
          <mxGeometry relative="1" as="geometry">
            <mxPoint x="129" y="287" as="targetPoint" />
          </mxGeometry>
        </mxCell>
        <mxCell id="OP_WZOEwzZ8E04Q1PPD2-21" value="LT2" style="text;html=1;align=center;verticalAlign=middle;resizable=0;points=[];autosize=1;strokeColor=none;fillColor=none;" vertex="1" parent="1">
          <mxGeometry x="49" y="272" width="40" height="30" as="geometry" />
        </mxCell>
        <mxCell id="OP_WZOEwzZ8E04Q1PPD2-22" style="edgeStyle=orthogonalEdgeStyle;rounded=0;orthogonalLoop=1;jettySize=auto;html=1;entryX=0;entryY=0.75;entryDx=0;entryDy=0;" edge="1" parent="1" source="OP_WZOEwzZ8E04Q1PPD2-23">
          <mxGeometry relative="1" as="geometry">
            <mxPoint x="129" y="302" as="targetPoint" />
          </mxGeometry>
        </mxCell>
        <mxCell id="OP_WZOEwzZ8E04Q1PPD2-23" value="LTA" style="text;html=1;align=center;verticalAlign=middle;resizable=0;points=[];autosize=1;strokeColor=none;fillColor=none;" vertex="1" parent="1">
          <mxGeometry x="49" y="287" width="40" height="30" as="geometry" />
        </mxCell>
        <mxCell id="OP_WZOEwzZ8E04Q1PPD2-128" style="edgeStyle=orthogonalEdgeStyle;rounded=0;orthogonalLoop=1;jettySize=auto;html=1;entryX=0;entryY=0.75;entryDx=0;entryDy=0;" edge="1" parent="1" source="OP_WZOEwzZ8E04Q1PPD2-24">
          <mxGeometry relative="1" as="geometry">
            <mxPoint x="128.99999999999977" y="322" as="targetPoint" />
          </mxGeometry>
        </mxCell>
        <mxCell id="OP_WZOEwzZ8E04Q1PPD2-24" value="CLK" style="text;html=1;align=center;verticalAlign=middle;resizable=0;points=[];autosize=1;strokeColor=none;fillColor=none;" vertex="1" parent="1">
          <mxGeometry x="44" y="307" width="50" height="30" as="geometry" />
        </mxCell>
        <mxCell id="OP_WZOEwzZ8E04Q1PPD2-28" value="ET_B" style="text;html=1;align=center;verticalAlign=middle;resizable=0;points=[];autosize=1;strokeColor=none;fillColor=none;" vertex="1" parent="1">
          <mxGeometry x="44" y="230" width="50" height="30" as="geometry" />
        </mxCell>
        <mxCell id="OP_WZOEwzZ8E04Q1PPD2-31" style="edgeStyle=orthogonalEdgeStyle;rounded=0;orthogonalLoop=1;jettySize=auto;html=1;entryX=0.25;entryY=0;entryDx=0;entryDy=0;" edge="1" parent="1" source="OP_WZOEwzZ8E04Q1PPD2-29" target="OP_WZOEwzZ8E04Q1PPD2-15">
          <mxGeometry relative="1" as="geometry" />
        </mxCell>
        <mxCell id="OP_WZOEwzZ8E04Q1PPD2-29" value="ET" style="text;html=1;align=center;verticalAlign=middle;resizable=0;points=[];autosize=1;strokeColor=none;fillColor=none;" vertex="1" parent="1">
          <mxGeometry x="49" y="215" width="40" height="30" as="geometry" />
        </mxCell>
        <mxCell id="OP_WZOEwzZ8E04Q1PPD2-30" style="edgeStyle=orthogonalEdgeStyle;rounded=0;orthogonalLoop=1;jettySize=auto;html=1;entryX=0.127;entryY=-0.02;entryDx=0;entryDy=0;entryPerimeter=0;" edge="1" parent="1" source="OP_WZOEwzZ8E04Q1PPD2-28" target="OP_WZOEwzZ8E04Q1PPD2-15">
          <mxGeometry relative="1" as="geometry">
            <Array as="points">
              <mxPoint x="153" y="245" />
            </Array>
          </mxGeometry>
        </mxCell>
        <mxCell id="OP_WZOEwzZ8E04Q1PPD2-35" style="edgeStyle=orthogonalEdgeStyle;rounded=0;orthogonalLoop=1;jettySize=auto;html=1;entryX=1;entryY=0.5;entryDx=0;entryDy=0;shape=flexArrow;fillColor=#d5e8d4;strokeColor=#82b366;endArrow=none;endFill=0;" edge="1" parent="1" source="OP_WZOEwzZ8E04Q1PPD2-34" target="OP_WZOEwzZ8E04Q1PPD2-1">
          <mxGeometry relative="1" as="geometry">
            <Array as="points">
              <mxPoint x="390" y="170" />
            </Array>
          </mxGeometry>
        </mxCell>
        <mxCell id="OP_WZOEwzZ8E04Q1PPD2-37" style="edgeStyle=orthogonalEdgeStyle;rounded=0;orthogonalLoop=1;jettySize=auto;html=1;shape=flexArrow;fillColor=#d5e8d4;strokeColor=#82b366;endArrow=none;endFill=0;entryX=1;entryY=0.25;entryDx=0;entryDy=0;" edge="1" parent="1" source="OP_WZOEwzZ8E04Q1PPD2-34" target="OP_WZOEwzZ8E04Q1PPD2-15">
          <mxGeometry relative="1" as="geometry">
            <mxPoint x="322" y="275" as="targetPoint" />
            <Array as="points">
              <mxPoint x="390" y="279" />
            </Array>
          </mxGeometry>
        </mxCell>
        <mxCell id="OP_WZOEwzZ8E04Q1PPD2-34" value="Address Bus (x16)" style="text;html=1;align=center;verticalAlign=middle;resizable=0;points=[];autosize=1;strokeColor=none;fillColor=none;fontSize=18;" vertex="1" parent="1">
          <mxGeometry x="305" y="63" width="170" height="40" as="geometry" />
        </mxCell>
        <mxCell id="OP_WZOEwzZ8E04Q1PPD2-69" style="edgeStyle=orthogonalEdgeStyle;rounded=0;orthogonalLoop=1;jettySize=auto;html=1;entryX=1;entryY=0.5;entryDx=0;entryDy=0;fillColor=#fff2cc;strokeColor=#d6b656;shape=flexArrow;endArrow=none;endFill=0;" edge="1" parent="1" source="OP_WZOEwzZ8E04Q1PPD2-38" target="OP_WZOEwzZ8E04Q1PPD2-60">
          <mxGeometry relative="1" as="geometry">
            <Array as="points">
              <mxPoint x="560" y="431" />
            </Array>
          </mxGeometry>
        </mxCell>
        <mxCell id="OP_WZOEwzZ8E04Q1PPD2-92" style="edgeStyle=orthogonalEdgeStyle;rounded=0;orthogonalLoop=1;jettySize=auto;html=1;entryX=1;entryY=0.5;entryDx=0;entryDy=0;fillColor=#fff2cc;strokeColor=#d6b656;shape=flexArrow;endArrow=none;endFill=0;" edge="1" parent="1" source="OP_WZOEwzZ8E04Q1PPD2-38" target="OP_WZOEwzZ8E04Q1PPD2-70">
          <mxGeometry relative="1" as="geometry">
            <Array as="points">
              <mxPoint x="560" y="519" />
            </Array>
          </mxGeometry>
        </mxCell>
        <mxCell id="OP_WZOEwzZ8E04Q1PPD2-105" style="edgeStyle=orthogonalEdgeStyle;rounded=0;orthogonalLoop=1;jettySize=auto;html=1;entryX=0;entryY=0.5;entryDx=0;entryDy=0;exitX=0.467;exitY=0.979;exitDx=0;exitDy=0;exitPerimeter=0;fillColor=#fff2cc;strokeColor=#d6b656;shape=flexArrow;endArrow=none;endFill=0;" edge="1" parent="1" source="OP_WZOEwzZ8E04Q1PPD2-38" target="OP_WZOEwzZ8E04Q1PPD2-98">
          <mxGeometry relative="1" as="geometry">
            <Array as="points">
              <mxPoint x="561" y="123" />
              <mxPoint x="560" y="155" />
            </Array>
          </mxGeometry>
        </mxCell>
        <mxCell id="OP_WZOEwzZ8E04Q1PPD2-118" style="edgeStyle=orthogonalEdgeStyle;rounded=0;orthogonalLoop=1;jettySize=auto;html=1;entryX=0;entryY=0.5;entryDx=0;entryDy=0;fillColor=#fff2cc;strokeColor=#d6b656;shape=flexArrow;endArrow=none;endFill=0;" edge="1" parent="1" source="OP_WZOEwzZ8E04Q1PPD2-38" target="OP_WZOEwzZ8E04Q1PPD2-106">
          <mxGeometry relative="1" as="geometry">
            <Array as="points">
              <mxPoint x="560" y="308" />
              <mxPoint x="650" y="308" />
            </Array>
          </mxGeometry>
        </mxCell>
        <mxCell id="OP_WZOEwzZ8E04Q1PPD2-126" style="edgeStyle=orthogonalEdgeStyle;rounded=0;orthogonalLoop=1;jettySize=auto;html=1;entryX=0;entryY=0.5;entryDx=0;entryDy=0;fillColor=#fff2cc;strokeColor=#d6b656;shape=flexArrow;endArrow=none;endFill=0;" edge="1" parent="1" source="OP_WZOEwzZ8E04Q1PPD2-38" target="OP_WZOEwzZ8E04Q1PPD2-121">
          <mxGeometry relative="1" as="geometry">
            <Array as="points">
              <mxPoint x="560" y="431" />
            </Array>
          </mxGeometry>
        </mxCell>
        <mxCell id="OP_WZOEwzZ8E04Q1PPD2-167" style="edgeStyle=orthogonalEdgeStyle;rounded=0;orthogonalLoop=1;jettySize=auto;html=1;fillColor=#fff2cc;strokeColor=#d6b656;shape=flexArrow;endArrow=none;endFill=0;entryX=0;entryY=0.75;entryDx=0;entryDy=0;" edge="1" parent="1" source="OP_WZOEwzZ8E04Q1PPD2-38" target="OP_WZOEwzZ8E04Q1PPD2-166">
          <mxGeometry relative="1" as="geometry">
            <mxPoint x="644" y="601" as="targetPoint" />
            <Array as="points">
              <mxPoint x="560" y="602" />
            </Array>
          </mxGeometry>
        </mxCell>
        <mxCell id="OP_WZOEwzZ8E04Q1PPD2-169" style="edgeStyle=orthogonalEdgeStyle;rounded=0;orthogonalLoop=1;jettySize=auto;html=1;entryX=1;entryY=0.75;entryDx=0;entryDy=0;fillColor=#fff2cc;strokeColor=#d6b656;shape=flexArrow;endArrow=none;endFill=0;" edge="1" parent="1" source="OP_WZOEwzZ8E04Q1PPD2-38" target="OP_WZOEwzZ8E04Q1PPD2-1">
          <mxGeometry relative="1" as="geometry">
            <Array as="points">
              <mxPoint x="560" y="185" />
            </Array>
          </mxGeometry>
        </mxCell>
        <mxCell id="OP_WZOEwzZ8E04Q1PPD2-38" value="Data Bus (x8)" style="text;html=1;align=center;verticalAlign=middle;resizable=0;points=[];autosize=1;strokeColor=none;fillColor=none;fontSize=18;" vertex="1" parent="1">
          <mxGeometry x="500" y="63" width="130" height="40" as="geometry" />
        </mxCell>
        <mxCell id="OP_WZOEwzZ8E04Q1PPD2-40" value="Address Buffer" style="rounded=0;whiteSpace=wrap;html=1;" vertex="1" parent="1">
          <mxGeometry x="129" y="368" width="190" height="42" as="geometry" />
        </mxCell>
        <mxCell id="OP_WZOEwzZ8E04Q1PPD2-41" style="edgeStyle=orthogonalEdgeStyle;rounded=0;orthogonalLoop=1;jettySize=auto;html=1;entryX=0;entryY=0.25;entryDx=0;entryDy=0;" edge="1" parent="1" source="OP_WZOEwzZ8E04Q1PPD2-42">
          <mxGeometry relative="1" as="geometry">
            <mxPoint x="129" y="375" as="targetPoint" />
          </mxGeometry>
        </mxCell>
        <mxCell id="OP_WZOEwzZ8E04Q1PPD2-42" value="LADD" style="text;html=1;align=center;verticalAlign=middle;resizable=0;points=[];autosize=1;strokeColor=none;fillColor=none;" vertex="1" parent="1">
          <mxGeometry x="39" y="360" width="60" height="30" as="geometry" />
        </mxCell>
        <mxCell id="OP_WZOEwzZ8E04Q1PPD2-43" style="edgeStyle=orthogonalEdgeStyle;rounded=0;orthogonalLoop=1;jettySize=auto;html=1;" edge="1" parent="1" source="OP_WZOEwzZ8E04Q1PPD2-44">
          <mxGeometry relative="1" as="geometry">
            <mxPoint x="129" y="390" as="targetPoint" />
          </mxGeometry>
        </mxCell>
        <mxCell id="OP_WZOEwzZ8E04Q1PPD2-44" value="CLK" style="text;html=1;align=center;verticalAlign=middle;resizable=0;points=[];autosize=1;strokeColor=none;fillColor=none;" vertex="1" parent="1">
          <mxGeometry x="44" y="375" width="50" height="30" as="geometry" />
        </mxCell>
        <mxCell id="OP_WZOEwzZ8E04Q1PPD2-45" style="edgeStyle=orthogonalEdgeStyle;rounded=0;orthogonalLoop=1;jettySize=auto;html=1;entryX=0;entryY=0.75;entryDx=0;entryDy=0;" edge="1" parent="1" source="OP_WZOEwzZ8E04Q1PPD2-46">
          <mxGeometry relative="1" as="geometry">
            <mxPoint x="129" y="405" as="targetPoint" />
          </mxGeometry>
        </mxCell>
        <mxCell id="OP_WZOEwzZ8E04Q1PPD2-46" value="RESET" style="text;html=1;align=center;verticalAlign=middle;resizable=0;points=[];autosize=1;strokeColor=none;fillColor=none;" vertex="1" parent="1">
          <mxGeometry x="39" y="390" width="60" height="30" as="geometry" />
        </mxCell>
        <mxCell id="OP_WZOEwzZ8E04Q1PPD2-51" value="Memory" style="rounded=0;whiteSpace=wrap;html=1;" vertex="1" parent="1">
          <mxGeometry x="129" y="410" width="81" height="42" as="geometry" />
        </mxCell>
        <mxCell id="OP_WZOEwzZ8E04Q1PPD2-56" style="edgeStyle=orthogonalEdgeStyle;rounded=0;orthogonalLoop=1;jettySize=auto;html=1;entryX=0;entryY=0.75;entryDx=0;entryDy=0;" edge="1" parent="1" source="OP_WZOEwzZ8E04Q1PPD2-57">
          <mxGeometry relative="1" as="geometry">
            <mxPoint x="129" y="442" as="targetPoint" />
          </mxGeometry>
        </mxCell>
        <mxCell id="OP_WZOEwzZ8E04Q1PPD2-57" value="CE" style="text;html=1;align=center;verticalAlign=middle;resizable=0;points=[];autosize=1;strokeColor=none;fillColor=none;" vertex="1" parent="1">
          <mxGeometry x="49" y="427" width="40" height="30" as="geometry" />
        </mxCell>
        <mxCell id="OP_WZOEwzZ8E04Q1PPD2-60" value="Data Buffer" style="rounded=0;whiteSpace=wrap;html=1;" vertex="1" parent="1">
          <mxGeometry x="209" y="410" width="110" height="42" as="geometry" />
        </mxCell>
        <mxCell id="OP_WZOEwzZ8E04Q1PPD2-66" style="edgeStyle=orthogonalEdgeStyle;rounded=0;orthogonalLoop=1;jettySize=auto;html=1;entryX=0;entryY=0.75;entryDx=0;entryDy=0;" edge="1" parent="1" source="OP_WZOEwzZ8E04Q1PPD2-67">
          <mxGeometry relative="1" as="geometry">
            <mxPoint x="129" y="425" as="targetPoint" />
          </mxGeometry>
        </mxCell>
        <mxCell id="OP_WZOEwzZ8E04Q1PPD2-67" value="WE" style="text;html=1;align=center;verticalAlign=middle;resizable=0;points=[];autosize=1;strokeColor=none;fillColor=none;" vertex="1" parent="1">
          <mxGeometry x="49" y="410" width="40" height="30" as="geometry" />
        </mxCell>
        <mxCell id="OP_WZOEwzZ8E04Q1PPD2-68" style="edgeStyle=orthogonalEdgeStyle;rounded=0;orthogonalLoop=1;jettySize=auto;html=1;entryX=1;entryY=0.5;entryDx=0;entryDy=0;fillColor=#d5e8d4;strokeColor=#82b366;shape=flexArrow;endArrow=none;endFill=0;" edge="1" parent="1" source="OP_WZOEwzZ8E04Q1PPD2-34" target="OP_WZOEwzZ8E04Q1PPD2-40">
          <mxGeometry relative="1" as="geometry" />
        </mxCell>
        <mxCell id="OP_WZOEwzZ8E04Q1PPD2-70" value="Instruction Register" style="rounded=0;whiteSpace=wrap;html=1;" vertex="1" parent="1">
          <mxGeometry x="129" y="498" width="190" height="42" as="geometry" />
        </mxCell>
        <mxCell id="OP_WZOEwzZ8E04Q1PPD2-71" style="edgeStyle=orthogonalEdgeStyle;rounded=0;orthogonalLoop=1;jettySize=auto;html=1;entryX=0;entryY=0.25;entryDx=0;entryDy=0;" edge="1" parent="1" source="OP_WZOEwzZ8E04Q1PPD2-72">
          <mxGeometry relative="1" as="geometry">
            <mxPoint x="129" y="519" as="targetPoint" />
          </mxGeometry>
        </mxCell>
        <mxCell id="OP_WZOEwzZ8E04Q1PPD2-72" value="LINST" style="text;html=1;align=center;verticalAlign=middle;resizable=0;points=[];autosize=1;strokeColor=none;fillColor=none;" vertex="1" parent="1">
          <mxGeometry x="39" y="504" width="60" height="30" as="geometry" />
        </mxCell>
        <mxCell id="OP_WZOEwzZ8E04Q1PPD2-78" value="Decoder" style="rounded=0;whiteSpace=wrap;html=1;" vertex="1" parent="1">
          <mxGeometry x="129" y="540" width="190" height="42" as="geometry" />
        </mxCell>
        <mxCell id="OP_WZOEwzZ8E04Q1PPD2-79" style="edgeStyle=orthogonalEdgeStyle;rounded=0;orthogonalLoop=1;jettySize=auto;html=1;entryX=0;entryY=0.25;entryDx=0;entryDy=0;" edge="1" parent="1" source="OP_WZOEwzZ8E04Q1PPD2-80">
          <mxGeometry relative="1" as="geometry">
            <mxPoint x="129" y="561" as="targetPoint" />
          </mxGeometry>
        </mxCell>
        <mxCell id="OP_WZOEwzZ8E04Q1PPD2-80" value="RESET" style="text;html=1;align=center;verticalAlign=middle;resizable=0;points=[];autosize=1;strokeColor=none;fillColor=none;" vertex="1" parent="1">
          <mxGeometry x="39" y="546" width="60" height="30" as="geometry" />
        </mxCell>
        <mxCell id="OP_WZOEwzZ8E04Q1PPD2-83" value="Timing Control" style="rounded=0;whiteSpace=wrap;html=1;" vertex="1" parent="1">
          <mxGeometry x="129" y="582" width="190" height="42" as="geometry" />
        </mxCell>
        <mxCell id="OP_WZOEwzZ8E04Q1PPD2-84" style="edgeStyle=orthogonalEdgeStyle;rounded=0;orthogonalLoop=1;jettySize=auto;html=1;entryX=0;entryY=0.25;entryDx=0;entryDy=0;" edge="1" parent="1" source="OP_WZOEwzZ8E04Q1PPD2-85">
          <mxGeometry relative="1" as="geometry">
            <mxPoint x="129" y="603" as="targetPoint" />
          </mxGeometry>
        </mxCell>
        <mxCell id="OP_WZOEwzZ8E04Q1PPD2-85" value="CLK" style="text;html=1;align=center;verticalAlign=middle;resizable=0;points=[];autosize=1;strokeColor=none;fillColor=none;" vertex="1" parent="1">
          <mxGeometry x="44" y="588" width="50" height="30" as="geometry" />
        </mxCell>
        <mxCell id="OP_WZOEwzZ8E04Q1PPD2-91" value="" style="edgeStyle=orthogonalEdgeStyle;rounded=0;orthogonalLoop=1;jettySize=auto;html=1;shape=flexArrow;fillColor=#f8cecc;strokeColor=#b85450;" edge="1" parent="1" source="OP_WZOEwzZ8E04Q1PPD2-86" target="OP_WZOEwzZ8E04Q1PPD2-90">
          <mxGeometry relative="1" as="geometry" />
        </mxCell>
        <mxCell id="OP_WZOEwzZ8E04Q1PPD2-86" value="Control Logic" style="rounded=0;whiteSpace=wrap;html=1;" vertex="1" parent="1">
          <mxGeometry x="129" y="624" width="190" height="42" as="geometry" />
        </mxCell>
        <mxCell id="OP_WZOEwzZ8E04Q1PPD2-90" value="Control Signals" style="text;html=1;align=center;verticalAlign=middle;resizable=0;points=[];autosize=1;strokeColor=none;fillColor=none;fontSize=18;" vertex="1" parent="1">
          <mxGeometry x="149" y="730" width="150" height="40" as="geometry" />
        </mxCell>
        <mxCell id="OP_WZOEwzZ8E04Q1PPD2-97" style="edgeStyle=orthogonalEdgeStyle;rounded=0;orthogonalLoop=1;jettySize=auto;html=1;entryX=1;entryY=0.25;entryDx=0;entryDy=0;" edge="1" parent="1" source="OP_WZOEwzZ8E04Q1PPD2-94" target="OP_WZOEwzZ8E04Q1PPD2-98">
          <mxGeometry relative="1" as="geometry">
            <mxPoint x="880" y="230" as="targetPoint" />
          </mxGeometry>
        </mxCell>
        <mxCell id="OP_WZOEwzZ8E04Q1PPD2-94" value="LACC" style="text;html=1;align=center;verticalAlign=middle;resizable=0;points=[];autosize=1;strokeColor=none;fillColor=none;" vertex="1" parent="1">
          <mxGeometry x="880" y="155" width="60" height="30" as="geometry" />
        </mxCell>
        <mxCell id="OP_WZOEwzZ8E04Q1PPD2-116" style="edgeStyle=orthogonalEdgeStyle;rounded=0;orthogonalLoop=1;jettySize=auto;html=1;entryX=0.5;entryY=0;entryDx=0;entryDy=0;fillColor=#fff2cc;strokeColor=#d6b656;shape=flexArrow;endArrow=none;endFill=0;" edge="1" parent="1" source="OP_WZOEwzZ8E04Q1PPD2-98" target="OP_WZOEwzZ8E04Q1PPD2-106">
          <mxGeometry relative="1" as="geometry" />
        </mxCell>
        <mxCell id="OP_WZOEwzZ8E04Q1PPD2-98" value="A-Register Accumulator" style="rounded=0;whiteSpace=wrap;html=1;" vertex="1" parent="1">
          <mxGeometry x="650" y="155" width="190" height="60" as="geometry" />
        </mxCell>
        <mxCell id="OP_WZOEwzZ8E04Q1PPD2-100" style="edgeStyle=orthogonalEdgeStyle;rounded=0;orthogonalLoop=1;jettySize=auto;html=1;entryX=1;entryY=0.5;entryDx=0;entryDy=0;" edge="1" parent="1" source="OP_WZOEwzZ8E04Q1PPD2-99" target="OP_WZOEwzZ8E04Q1PPD2-98">
          <mxGeometry relative="1" as="geometry" />
        </mxCell>
        <mxCell id="OP_WZOEwzZ8E04Q1PPD2-99" value="CLK" style="text;html=1;align=center;verticalAlign=middle;resizable=0;points=[];autosize=1;strokeColor=none;fillColor=none;" vertex="1" parent="1">
          <mxGeometry x="885" y="170" width="50" height="30" as="geometry" />
        </mxCell>
        <mxCell id="OP_WZOEwzZ8E04Q1PPD2-102" style="edgeStyle=orthogonalEdgeStyle;rounded=0;orthogonalLoop=1;jettySize=auto;html=1;entryX=1;entryY=0.75;entryDx=0;entryDy=0;" edge="1" parent="1" source="OP_WZOEwzZ8E04Q1PPD2-101" target="OP_WZOEwzZ8E04Q1PPD2-98">
          <mxGeometry relative="1" as="geometry" />
        </mxCell>
        <mxCell id="OP_WZOEwzZ8E04Q1PPD2-101" value="EACC" style="text;html=1;align=center;verticalAlign=middle;resizable=0;points=[];autosize=1;strokeColor=none;fillColor=none;" vertex="1" parent="1">
          <mxGeometry x="885" y="187" width="51" height="26" as="geometry" />
        </mxCell>
        <mxCell id="OP_WZOEwzZ8E04Q1PPD2-106" value="&lt;div&gt;&lt;br&gt;&lt;/div&gt;Arithmetic Logic Unit (ALU)&lt;div&gt;&lt;br&gt;&lt;div&gt;&lt;table cellpadding=&quot;10&quot; align=&quot;center&quot; style=&quot;border: 1px solid rgb(0, 0, 0); border-collapse: collapse;&quot; border=&quot;1&quot;&gt;&lt;tbody&gt;&lt;tr&gt;&lt;td style=&quot;border-collapse: collapse;&quot; border=&quot;1&quot;&gt;CF&lt;/td&gt;&lt;td&gt;ZF&lt;/td&gt;&lt;td&gt;SF&lt;/td&gt;&lt;td&gt;OF&lt;/td&gt;&lt;/tr&gt;&lt;/tbody&gt;&lt;/table&gt;&lt;br&gt;&lt;/div&gt;&lt;/div&gt;" style="rounded=0;whiteSpace=wrap;html=1;" vertex="1" parent="1">
          <mxGeometry x="650" y="272" width="190" height="83" as="geometry" />
        </mxCell>
        <mxCell id="OP_WZOEwzZ8E04Q1PPD2-113" style="edgeStyle=orthogonalEdgeStyle;rounded=0;orthogonalLoop=1;jettySize=auto;html=1;entryX=1;entryY=0.25;entryDx=0;entryDy=0;" edge="1" parent="1" source="OP_WZOEwzZ8E04Q1PPD2-107" target="OP_WZOEwzZ8E04Q1PPD2-106">
          <mxGeometry relative="1" as="geometry" />
        </mxCell>
        <mxCell id="OP_WZOEwzZ8E04Q1PPD2-107" value="SEL[0:3]" style="text;html=1;align=center;verticalAlign=middle;resizable=0;points=[];autosize=1;strokeColor=none;fillColor=none;" vertex="1" parent="1">
          <mxGeometry x="875" y="277" width="70" height="30" as="geometry" />
        </mxCell>
        <mxCell id="OP_WZOEwzZ8E04Q1PPD2-108" value="EALU" style="text;html=1;align=center;verticalAlign=middle;resizable=0;points=[];autosize=1;strokeColor=none;fillColor=none;" vertex="1" parent="1">
          <mxGeometry x="883" y="298" width="50" height="30" as="geometry" />
        </mxCell>
        <mxCell id="OP_WZOEwzZ8E04Q1PPD2-115" style="edgeStyle=orthogonalEdgeStyle;rounded=0;orthogonalLoop=1;jettySize=auto;html=1;entryX=1.011;entryY=0.649;entryDx=0;entryDy=0;entryPerimeter=0;" edge="1" parent="1" source="OP_WZOEwzZ8E04Q1PPD2-108">
          <mxGeometry relative="1" as="geometry">
            <mxPoint x="840.0900000000001" y="312.8670000000001" as="targetPoint" />
          </mxGeometry>
        </mxCell>
        <mxCell id="OP_WZOEwzZ8E04Q1PPD2-119" style="edgeStyle=orthogonalEdgeStyle;rounded=0;orthogonalLoop=1;jettySize=auto;html=1;entryX=1;entryY=0.25;entryDx=0;entryDy=0;" edge="1" parent="1" source="OP_WZOEwzZ8E04Q1PPD2-120" target="OP_WZOEwzZ8E04Q1PPD2-121">
          <mxGeometry relative="1" as="geometry">
            <mxPoint x="880" y="476" as="targetPoint" />
          </mxGeometry>
        </mxCell>
        <mxCell id="OP_WZOEwzZ8E04Q1PPD2-120" value="LBUFF" style="text;html=1;align=center;verticalAlign=middle;resizable=0;points=[];autosize=1;strokeColor=none;fillColor=none;" vertex="1" parent="1">
          <mxGeometry x="882" y="403" width="56" height="26" as="geometry" />
        </mxCell>
        <mxCell id="OP_WZOEwzZ8E04Q1PPD2-127" style="edgeStyle=orthogonalEdgeStyle;rounded=0;orthogonalLoop=1;jettySize=auto;html=1;entryX=0.5;entryY=1;entryDx=0;entryDy=0;fillColor=#fff2cc;strokeColor=#d6b656;shape=flexArrow;endArrow=none;endFill=0;" edge="1" parent="1" source="OP_WZOEwzZ8E04Q1PPD2-121" target="OP_WZOEwzZ8E04Q1PPD2-106">
          <mxGeometry relative="1" as="geometry" />
        </mxCell>
        <mxCell id="OP_WZOEwzZ8E04Q1PPD2-121" value="B-Register Data Buffer" style="rounded=0;whiteSpace=wrap;html=1;" vertex="1" parent="1">
          <mxGeometry x="650" y="401" width="190" height="60" as="geometry" />
        </mxCell>
        <mxCell id="OP_WZOEwzZ8E04Q1PPD2-122" style="edgeStyle=orthogonalEdgeStyle;rounded=0;orthogonalLoop=1;jettySize=auto;html=1;entryX=1;entryY=0.5;entryDx=0;entryDy=0;" edge="1" parent="1" source="OP_WZOEwzZ8E04Q1PPD2-123" target="OP_WZOEwzZ8E04Q1PPD2-121">
          <mxGeometry relative="1" as="geometry" />
        </mxCell>
        <mxCell id="OP_WZOEwzZ8E04Q1PPD2-123" value="CLK" style="text;html=1;align=center;verticalAlign=middle;resizable=0;points=[];autosize=1;strokeColor=none;fillColor=none;" vertex="1" parent="1">
          <mxGeometry x="885" y="416" width="50" height="30" as="geometry" />
        </mxCell>
        <mxCell id="OP_WZOEwzZ8E04Q1PPD2-124" style="edgeStyle=orthogonalEdgeStyle;rounded=0;orthogonalLoop=1;jettySize=auto;html=1;entryX=1;entryY=0.75;entryDx=0;entryDy=0;" edge="1" parent="1" source="OP_WZOEwzZ8E04Q1PPD2-125" target="OP_WZOEwzZ8E04Q1PPD2-121">
          <mxGeometry relative="1" as="geometry" />
        </mxCell>
        <mxCell id="OP_WZOEwzZ8E04Q1PPD2-125" value="EBUFF" style="text;html=1;align=center;verticalAlign=middle;resizable=0;points=[];autosize=1;strokeColor=none;fillColor=none;" vertex="1" parent="1">
          <mxGeometry x="882" y="433" width="57" height="26" as="geometry" />
        </mxCell>
        <mxCell id="OP_WZOEwzZ8E04Q1PPD2-130" style="edgeStyle=orthogonalEdgeStyle;rounded=0;orthogonalLoop=1;jettySize=auto;html=1;entryX=-0.001;entryY=0.115;entryDx=0;entryDy=0;entryPerimeter=0;" edge="1" parent="1" source="OP_WZOEwzZ8E04Q1PPD2-19" target="OP_WZOEwzZ8E04Q1PPD2-15">
          <mxGeometry relative="1" as="geometry" />
        </mxCell>
        <mxCell id="OP_WZOEwzZ8E04Q1PPD2-166" value="Extra Registers&lt;div&gt;(Mirror Temporary Register)&lt;/div&gt;&lt;div&gt;&lt;br&gt;&lt;/div&gt;&lt;div&gt;Stack Pointer (SP)&lt;/div&gt;&lt;div&gt;Base Pointer (BP)&lt;/div&gt;&lt;div&gt;Restore Register (RR)&lt;/div&gt;" style="rounded=1;whiteSpace=wrap;html=1;dashed=1;" vertex="1" parent="1">
          <mxGeometry x="650" y="507" width="193" height="127" as="geometry" />
        </mxCell>
        <mxCell id="OP_WZOEwzZ8E04Q1PPD2-168" style="edgeStyle=orthogonalEdgeStyle;rounded=0;orthogonalLoop=1;jettySize=auto;html=1;entryX=0;entryY=0.5;entryDx=0;entryDy=0;fillColor=#d5e8d4;strokeColor=#82b366;shape=flexArrow;endArrow=none;endFill=0;" edge="1" parent="1" source="OP_WZOEwzZ8E04Q1PPD2-34" target="OP_WZOEwzZ8E04Q1PPD2-166">
          <mxGeometry relative="1" as="geometry">
            <Array as="points">
              <mxPoint x="390" y="571" />
            </Array>
          </mxGeometry>
        </mxCell>
      </root>
    </mxGraphModel>
  </diagram>
</mxfile>
